<svg width="18" height="18" viewBox="0 0 18 18" fill="none" xmlns="http://www.w3.org/2000/svg">
<path d="M11.95 2.14409C13.635 1.64809 14.934 2.41409 15.527 3.32309C16.2 3.09209 16.858 2.84209 17.538 2.61509C17.5249 3.30145 17.2117 3.94761 16.681 4.38309C17.366 4.55309 17.985 3.89209 17.985 3.89209C17.816 4.89209 16.979 5.68009 16.422 5.91609C16.191 12.6661 13.247 17.1331 6.34501 16.9981H5.89901C5.48901 16.9981 1.73501 16.5381 1.00101 15.1111C3.27201 15.3071 4.89401 14.6891 5.69401 13.9341C4.73401 13.6341 3.01501 13.4571 2.71501 10.9841C3.06401 11.0901 3.27901 11.2121 3.90501 11.1031C2.70501 10.2471 1.37401 9.53009 1.44801 7.33009C1.73301 7.65809 2.51501 7.86609 2.78801 7.80209C2.08501 7.56109 0.818007 4.44209 1.89401 2.85009C3.71201 4.70409 5.62901 6.45609 9.04601 6.62309C9.25401 4.33009 10.183 2.79309 11.95 2.14409Z" fill="white"/>
</svg>
